<svg xmlns="http://www.w3.org/2000/svg" xmlns:xlink="http://www.w3.org/1999/xlink" version="1.1" width="256" height="256" viewBox="0 0 256 256" xml:space="preserve">
<desc>Created with Fabric.js 1.7.22</desc>
<defs>
</defs>
<g transform="translate(128 128) scale(0.72 0.72)" style="">
	<g style="stroke: none; stroke-width: 0; stroke-dasharray: none; stroke-linecap: butt; stroke-linejoin: miter; stroke-miterlimit: 10; fill: none; fill-rule: nonzero; opacity: 1;" transform="translate(-175.05 -175.05000000000004) scale(3.89 3.89)" >
	<path d="M 82.743 78.61 H 7.257 c -0.552 0 -1 -0.447 -1 -1 V 35.126 c 0 -3.122 2.54 -5.661 5.661 -5.661 h 16.127 c 0.552 0 1 0.448 1 1 s -0.448 1 -1 1 H 11.918 c -2.019 0 -3.661 1.643 -3.661 3.661 V 76.61 h 73.486 V 35.126 c 0 -2.019 -1.643 -3.661 -3.661 -3.661 H 61.955 c -0.553 0 -1 -0.448 -1 -1 s 0.447 -1 1 -1 h 16.127 c 3.121 0 5.661 2.54 5.661 5.661 V 77.61 C 83.743 78.163 83.296 78.61 82.743 78.61 z" style="stroke: none; stroke-width: 1; stroke-dasharray: none; stroke-linecap: butt; stroke-linejoin: miter; stroke-miterlimit: 10; fill: rgb(0,0,0); fill-rule: nonzero; opacity: 1;" transform=" matrix(1 0 0 1 0 0) " stroke-linecap="round" />
	<path d="M 80.73 90 H 9.269 c -4.582 0 -8.31 -3.728 -8.31 -8.31 v -4.08 c 0 -0.553 0.448 -1 1 -1 h 86.082 c 0.553 0 1 0.447 1 1 v 4.08 C 89.041 86.272 85.313 90 80.73 90 z M 2.959 78.61 v 3.08 c 0 3.479 2.831 6.31 6.31 6.31 H 80.73 c 3.479 0 6.311 -2.83 6.311 -6.31 v -3.08 H 2.959 z" style="stroke: none; stroke-width: 1; stroke-dasharray: none; stroke-linecap: butt; stroke-linejoin: miter; stroke-miterlimit: 10; fill: rgb(0,0,0); fill-rule: nonzero; opacity: 1;" transform=" matrix(1 0 0 1 0 0) " stroke-linecap="round" />
	<path d="M 51.092 84.306 H 38.908 c -0.552 0 -1 -0.447 -1 -1 s 0.448 -1 1 -1 h 12.184 c 0.553 0 1 0.447 1 1 S 51.645 84.306 51.092 84.306 z" style="stroke: none; stroke-width: 1; stroke-dasharray: none; stroke-linecap: butt; stroke-linejoin: miter; stroke-miterlimit: 10; fill: rgb(0,0,0); fill-rule: nonzero; opacity: 1;" transform=" matrix(1 0 0 1 0 0) " stroke-linecap="round" />
	<path d="M 45 55.971 c -1.014 0 -2.028 -0.261 -2.932 -0.783 l -12.091 -6.98 c -1.809 -1.045 -2.932 -2.991 -2.932 -5.079 V 29.167 c 0 -2.088 1.124 -4.034 2.932 -5.079 l 12.091 -6.981 c 1.809 -1.043 4.057 -1.044 5.865 0 l 12.09 6.98 c 1.809 1.045 2.933 2.991 2.933 5.079 v 13.961 c 0 2.088 -1.124 4.034 -2.933 5.079 l -12.09 6.98 C 47.028 55.71 46.014 55.971 45 55.971 z M 45 18.324 c -0.668 0 -1.336 0.172 -1.932 0.516 l -12.091 6.981 c -1.192 0.688 -1.932 1.971 -1.932 3.347 v 13.961 c 0 1.376 0.74 2.658 1.932 3.346 l 12.091 6.98 c 1.192 0.689 2.673 0.689 3.865 0 l 12.09 -6.98 c 1.192 -0.688 1.933 -1.971 1.933 -3.346 V 29.167 c 0 -1.376 -0.74 -2.658 -1.933 -3.347 l -12.09 -6.98 C 46.337 18.496 45.668 18.324 45 18.324 z" style="stroke: none; stroke-width: 1; stroke-dasharray: none; stroke-linecap: butt; stroke-linejoin: miter; stroke-miterlimit: 10; fill: rgb(0,0,0); fill-rule: nonzero; opacity: 1;" transform=" matrix(1 0 0 1 0 0) " stroke-linecap="round" />
	<path d="M 39.162 42.526 c -0.339 0 -0.664 -0.173 -0.85 -0.473 l -4.828 -7.777 v 7.25 c 0 0.552 -0.448 1 -1 1 s -1 -0.448 -1 -1 V 30.769 c 0 -0.447 0.296 -0.839 0.726 -0.962 c 0.429 -0.122 0.888 0.054 1.124 0.435 l 4.828 7.777 v -7.25 c 0 -0.552 0.448 -1 1 -1 s 1 0.448 1 1 v 10.757 c 0 0.447 -0.296 0.839 -0.726 0.962 C 39.345 42.514 39.253 42.526 39.162 42.526 z" style="stroke: none; stroke-width: 1; stroke-dasharray: none; stroke-linecap: butt; stroke-linejoin: miter; stroke-miterlimit: 10; fill: rgb(0,0,0); fill-rule: nonzero; opacity: 1;" transform=" matrix(1 0 0 1 0 0) " stroke-linecap="round" />
	<path d="M 43.333 42.526 c -0.552 0 -1 -0.448 -1 -1 V 30.769 c 0 -0.552 0.448 -1 1 -1 h 4.769 c 0.553 0 1 0.448 1 1 s -0.447 1 -1 1 h -3.769 v 9.757 C 44.333 42.079 43.886 42.526 43.333 42.526 z" style="stroke: none; stroke-width: 1; stroke-dasharray: none; stroke-linecap: butt; stroke-linejoin: miter; stroke-miterlimit: 10; fill: rgb(0,0,0); fill-rule: nonzero; opacity: 1;" transform=" matrix(1 0 0 1 0 0) " stroke-linecap="round" />
	<path d="M 47.125 37.148 h -3.792 c -0.552 0 -1 -0.448 -1 -1 s 0.448 -1 1 -1 h 3.792 c 0.553 0 1 0.448 1 1 S 47.678 37.148 47.125 37.148 z" style="stroke: none; stroke-width: 1; stroke-dasharray: none; stroke-linecap: butt; stroke-linejoin: miter; stroke-miterlimit: 10; fill: rgb(0,0,0); fill-rule: nonzero; opacity: 1;" transform=" matrix(1 0 0 1 0 0) " stroke-linecap="round" />
	<path d="M 57.515 31.769 h -6.113 c -0.553 0 -1 -0.448 -1 -1 s 0.447 -1 1 -1 h 6.113 c 0.553 0 1 0.448 1 1 S 58.067 31.769 57.515 31.769 z" style="stroke: none; stroke-width: 1; stroke-dasharray: none; stroke-linecap: butt; stroke-linejoin: miter; stroke-miterlimit: 10; fill: rgb(0,0,0); fill-rule: nonzero; opacity: 1;" transform=" matrix(1 0 0 1 0 0) " stroke-linecap="round" />
	<path d="M 54.458 42.526 c -0.553 0 -1 -0.448 -1 -1 V 30.769 c 0 -0.552 0.447 -1 1 -1 s 1 0.448 1 1 v 10.757 C 55.458 42.079 55.011 42.526 54.458 42.526 z" style="stroke: none; stroke-width: 1; stroke-dasharray: none; stroke-linecap: butt; stroke-linejoin: miter; stroke-miterlimit: 10; fill: rgb(0,0,0); fill-rule: nonzero; opacity: 1;" transform=" matrix(1 0 0 1 0 0) " stroke-linecap="round" />
	<path d="M 45 9.042 c -2.493 0 -4.521 -2.028 -4.521 -4.521 C 40.479 2.028 42.507 0 45 0 c 2.493 0 4.521 2.028 4.521 4.521 C 49.521 7.014 47.493 9.042 45 9.042 z M 45 2 c -1.39 0 -2.521 1.131 -2.521 2.521 S 43.61 7.042 45 7.042 c 1.391 0 2.521 -1.131 2.521 -2.521 S 46.391 2 45 2 z" style="stroke: none; stroke-width: 1; stroke-dasharray: none; stroke-linecap: butt; stroke-linejoin: miter; stroke-miterlimit: 10; fill: rgb(0,0,0); fill-rule: nonzero; opacity: 1;" transform=" matrix(1 0 0 1 0 0) " stroke-linecap="round" />
	<path d="M 45 72.296 c -2.493 0 -4.521 -2.028 -4.521 -4.521 s 2.028 -4.521 4.521 -4.521 c 2.493 0 4.521 2.028 4.521 4.521 S 47.493 72.296 45 72.296 z M 45 65.253 c -1.39 0 -2.521 1.131 -2.521 2.521 S 43.61 70.296 45 70.296 c 1.391 0 2.521 -1.131 2.521 -2.521 S 46.391 65.253 45 65.253 z" style="stroke: none; stroke-width: 1; stroke-dasharray: none; stroke-linecap: butt; stroke-linejoin: miter; stroke-miterlimit: 10; fill: rgb(0,0,0); fill-rule: nonzero; opacity: 1;" transform=" matrix(1 0 0 1 0 0) " stroke-linecap="round" />
	<rect x="44" y="8.04" rx="0" ry="0" width="2" height="9.28" style="stroke: none; stroke-width: 1; stroke-dasharray: none; stroke-linecap: butt; stroke-linejoin: miter; stroke-miterlimit: 10; fill: rgb(0,0,0); fill-rule: nonzero; opacity: 1;" transform=" matrix(1 0 0 1 0 0) "/>
	<rect x="44" y="54.97" rx="0" ry="0" width="2" height="9.28" style="stroke: none; stroke-width: 1; stroke-dasharray: none; stroke-linecap: butt; stroke-linejoin: miter; stroke-miterlimit: 10; fill: rgb(0,0,0); fill-rule: nonzero; opacity: 1;" transform=" matrix(1 0 0 1 0 0) "/>
	<path d="M 28.438 15.116 c -2.493 0 -4.521 -2.028 -4.521 -4.521 c 0 -2.493 2.028 -4.521 4.521 -4.521 s 4.521 2.028 4.521 4.521 C 32.958 13.088 30.93 15.116 28.438 15.116 z M 28.438 8.074 c -1.39 0 -2.521 1.131 -2.521 2.521 s 1.131 2.521 2.521 2.521 s 2.521 -1.131 2.521 -2.521 S 29.828 8.074 28.438 8.074 z" style="stroke: none; stroke-width: 1; stroke-dasharray: none; stroke-linecap: butt; stroke-linejoin: miter; stroke-miterlimit: 10; fill: rgb(0,0,0); fill-rule: nonzero; opacity: 1;" transform=" matrix(1 0 0 1 0 0) " stroke-linecap="round" />
	<path d="M 28.438 66.222 c -2.493 0 -4.521 -2.028 -4.521 -4.521 c 0 -2.492 2.028 -4.521 4.521 -4.521 s 4.521 2.028 4.521 4.521 C 32.958 64.193 30.93 66.222 28.438 66.222 z M 28.438 59.18 c -1.39 0 -2.521 1.131 -2.521 2.521 c 0 1.391 1.131 2.521 2.521 2.521 s 2.521 -1.131 2.521 -2.521 C 30.958 60.311 29.828 59.18 28.438 59.18 z" style="stroke: none; stroke-width: 1; stroke-dasharray: none; stroke-linecap: butt; stroke-linejoin: miter; stroke-miterlimit: 10; fill: rgb(0,0,0); fill-rule: nonzero; opacity: 1;" transform=" matrix(1 0 0 1 0 0) " stroke-linecap="round" />
	<path d="M 36.469 22.495 c -0.552 0 -1 -0.448 -1 -1 v -5.08 l -4.675 -2.973 c -0.466 -0.296 -0.604 -0.915 -0.307 -1.38 c 0.297 -0.467 0.914 -0.604 1.38 -0.307 l 5.138 3.268 c 0.289 0.184 0.463 0.502 0.463 0.844 v 5.629 C 37.469 22.047 37.021 22.495 36.469 22.495 z" style="stroke: none; stroke-width: 1; stroke-dasharray: none; stroke-linecap: butt; stroke-linejoin: miter; stroke-miterlimit: 10; fill: rgb(0,0,0); fill-rule: nonzero; opacity: 1;" transform=" matrix(1 0 0 1 0 0) " stroke-linecap="round" />
	<path d="M 31.332 60.697 c -0.331 0 -0.654 -0.164 -0.845 -0.464 c -0.296 -0.466 -0.159 -1.084 0.307 -1.38 l 4.675 -2.973 v -5.08 c 0 -0.553 0.448 -1 1 -1 s 1 0.447 1 1 v 5.629 c 0 0.342 -0.175 0.66 -0.463 0.844 l -5.138 3.268 C 31.701 60.646 31.516 60.697 31.332 60.697 z" style="stroke: none; stroke-width: 1; stroke-dasharray: none; stroke-linecap: butt; stroke-linejoin: miter; stroke-miterlimit: 10; fill: rgb(0,0,0); fill-rule: nonzero; opacity: 1;" transform=" matrix(1 0 0 1 0 0) " stroke-linecap="round" />
	<path d="M 61.563 15.116 c -2.493 0 -4.521 -2.028 -4.521 -4.521 c 0 -2.493 2.028 -4.521 4.521 -4.521 s 4.521 2.028 4.521 4.521 C 66.084 13.088 64.056 15.116 61.563 15.116 z M 61.563 8.074 c -1.391 0 -2.521 1.131 -2.521 2.521 s 1.131 2.521 2.521 2.521 s 2.521 -1.131 2.521 -2.521 S 62.953 8.074 61.563 8.074 z" style="stroke: none; stroke-width: 1; stroke-dasharray: none; stroke-linecap: butt; stroke-linejoin: miter; stroke-miterlimit: 10; fill: rgb(0,0,0); fill-rule: nonzero; opacity: 1;" transform=" matrix(1 0 0 1 0 0) " stroke-linecap="round" />
	<path d="M 61.563 66.222 c -2.493 0 -4.521 -2.028 -4.521 -4.521 c 0 -2.492 2.028 -4.521 4.521 -4.521 s 4.521 2.028 4.521 4.521 C 66.084 64.193 64.056 66.222 61.563 66.222 z M 61.563 59.18 c -1.391 0 -2.521 1.131 -2.521 2.521 c 0 1.391 1.131 2.521 2.521 2.521 s 2.521 -1.131 2.521 -2.521 C 64.084 60.311 62.953 59.18 61.563 59.18 z" style="stroke: none; stroke-width: 1; stroke-dasharray: none; stroke-linecap: butt; stroke-linejoin: miter; stroke-miterlimit: 10; fill: rgb(0,0,0); fill-rule: nonzero; opacity: 1;" transform=" matrix(1 0 0 1 0 0) " stroke-linecap="round" />
	<path d="M 53.531 22.495 c -0.553 0 -1 -0.448 -1 -1 v -5.629 c 0 -0.342 0.175 -0.66 0.463 -0.844 l 5.138 -3.268 c 0.468 -0.296 1.084 -0.159 1.381 0.307 s 0.159 1.084 -0.307 1.38 l -4.675 2.973 v 5.08 C 54.531 22.047 54.084 22.495 53.531 22.495 z" style="stroke: none; stroke-width: 1; stroke-dasharray: none; stroke-linecap: butt; stroke-linejoin: miter; stroke-miterlimit: 10; fill: rgb(0,0,0); fill-rule: nonzero; opacity: 1;" transform=" matrix(1 0 0 1 0 0) " stroke-linecap="round" />
	<path d="M 58.668 60.697 c -0.184 0 -0.369 -0.051 -0.536 -0.156 l -5.138 -3.268 c -0.288 -0.184 -0.463 -0.502 -0.463 -0.844 v -5.629 c 0 -0.553 0.447 -1 1 -1 s 1 0.447 1 1 v 5.08 l 4.675 2.973 c 0.466 0.296 0.604 0.914 0.307 1.381 C 59.322 60.533 58.999 60.697 58.668 60.697 z" style="stroke: none; stroke-width: 1; stroke-dasharray: none; stroke-linecap: butt; stroke-linejoin: miter; stroke-miterlimit: 10; fill: rgb(0,0,0); fill-rule: nonzero; opacity: 1;" transform=" matrix(1 0 0 1 0 0) " stroke-linecap="round" />
</g>
</g>
</svg>